<?xml version="1.0" encoding="UTF-8" standalone="no"?>
<svg xmlns="http://www.w3.org/2000/svg" xmlns:xlink="http://www.w3.org/1999/xlink" class="card" face="5D" height="3.5in" preserveAspectRatio="none" viewBox="-106 -164.5 212 329" width="2.25in"><symbol id="SD5" viewBox="-600 -600 1200 1200" preserveAspectRatio="xMinYMid"><path d="M-400 0C-350 0 0 -450 0 -500C0 -450 350 0 400 0C350 0 0 450 0 500C0 450 -350 0 -400 0Z"></path></symbol><symbol id="VD5" viewBox="-500 -500 1000 1000" preserveAspectRatio="xMinYMid"><path d="M170 -460L-175 -460L-210 -115C-210 -115 -200 -200 0 -200C100 -200 255 -80 255 120C255 320 180 460 -20 460C-220 460 -255 285 -255 285" stroke="black" stroke-width="80" stroke-linecap="square" stroke-miterlimit="1.5" fill="none"></path></symbol><defs><rect id="XD5" width="108" height="225" x="-54" y="-112.5"></rect></defs><rect width="211" height="328" x="-105.5" y="-164" rx="12" ry="12" fill="white" stroke="black"></rect><use xlink:href="#XD5" stroke="black" fill="none"></use><use xlink:href="#VD5" height="50" x="-104" y="-152.5"></use><use xlink:href="#SD5" height="41.827" x="-99.913" y="-97.5" stroke="black" stroke-width="100" stroke-linejoin="round" stroke-linecap="round"></use><use xlink:href="#SD5" height="41.827" x="-99.913" y="-97.5" fill="red"></use><use xlink:href="#SD5" height="40" x="-55.667" y="-110.834"></use><use xlink:href="#SD5" height="40" x="15.667" y="-110.834"></use><use xlink:href="#SD5" height="40" x="-20" y="-20"></use><g transform="rotate(180)"><use xlink:href="#SD5" height="40" x="-55.667" y="-110.834"></use><use xlink:href="#SD5" height="40" x="15.667" y="-110.834"></use></g></svg>